# xmcd CD database file
#
# Track frame offsets:
#	182
#	19307
#	33895
#	49357
#	61607
#	76082
#	93895
#	114147
#	129827
#	139532
#	150965
#	165880
#
# Disc length: 2391 seconds
#
# Revision: 6
# Processed by: cddbd v1.5.2PL0 Copyright (c) Steve Scherf et al.
# Submitted via: CDex 1.51
#
DISCID=7609550c
DTITLE=Dr. John - Dr. John's Gumbo [Remastered 1990]
DYEAR=1972
DGENRE=Rock
TTITLE0=Iko Iko
TTITLE1=Blow Wind Blow
TTITLE2=Big Chief
TTITLE3=Somebody Changed the Lock
TTITLE4=Mess Around
TTITLE5=Let the Good Times Roll
TTITLE6=Junko Partner
TTITLE7=Stack-A-Lee
TTITLE8=Tipitina
TTITLE9=Those Lonely Lonely Nights
TTITLE10=Huey Smith Medley
TTITLE11=Little Liza Jane
EXTD=YEAR: 1972
EXTT0=
EXTT1=
EXTT2=
EXTT3=
EXTT4=
EXTT5=
EXTT6=
EXTT7=
EXTT8=
EXTT9=
EXTT10=
EXTT11=
PLAYORDER=
